<svg xmlns="http://www.w3.org/2000/svg" xmlns:xlink="http://www.w3.org/1999/xlink" xmlns:lucid="lucid" width="1220" height="475"><g transform="translate(-20 -40)" lucid:page-tab-id="In7~hgJeS5eh"><path d="M0 0h1760v1360H0z" fill="#fff"/><path d="M310.02 301.47l.13 6.46.2 3.26m.87 9.68l.08.8.94 6.38 1.17 6.1 1.37 5.83m2.77 9.32l.6 1.8 1.96 5.3 2.17 5.16 2.36 5.03.35.68m4.7 8.52l.3.56 3.03 4.76 3.27 4.7 3.53 4.63 1.04 1.26m6.38 7.36l.5.57 4.47 4.56 4.84 4.54 4.3 3.7m7.6 6.04l5.4 3.92 6.9 4.58 3.86 2.34m8.43 4.84l3.7 2.04 9.33 4.62 4.4 1.96m8.95 3.83l8.7 3.45 9.55 3.32m9.27 2.96l9.13 2.75 9.6 2.47m9.46 2.32l17.05 3.6 2 .35m9.6 1.62l10.45 1.76 8.8 1.1m9.65 1.22l6.83.86 12.53 1.05m9.7.8l6.72.57 12.7.53m9.73.4l9.72.4" stroke="#3a414a" stroke-width="2" stroke-linejoin="round" fill="none"/><path d="M311.02 301.47l-2 .04-.02-1.04h2z" stroke="#3a414a" stroke-width=".05" fill="#3a414a"/><path d="M616.33 478.3L602 482.8l.12-9.27z" stroke="#3a414a" stroke-width="2" fill="#3a414a"/><path d="M310.02 101.47l.2 9.82m.33 9.8l.93 14.67.5 4.94m1.04 9.78l.27 2.58 2.48 16.87m1.84 9.65l1.35 7.1 2.84 12.1m2.48 9.5l2.92 10.48 2.7 8.35m3.15 9.32l4.66 12.56 2.44 5.76m3.83 9.05l6.26 13.3 2.3 4.38m4.54 8.7l.1.18 7.3 12.67 2.6 4.08m5.26 8.3l7.83 11.25 3.6 4.74m6 7.76l7.3 8.83 5.48 6.08m6.72 7.16l5.7 5.83 8.4 7.87m7.4 6.46l3 2.6 9.68 7.67 2.7 1.95m7.96 5.75l9.27 6.16 7.3 4.4m8.53 4.87l4.8 2.65 10.6 5.26 2.14.95m8.98 4l10.64 4.2 7.75 2.7m9.37 2.98l5.46 1.65 11.63 3 1.9.4m9.6 2.03l.38.1 12.14 2.04 6.9.87m9.77 1.07l8.52.7 1.28.07" stroke="#3a414a" stroke-width="2" stroke-linejoin="round" fill="none"/><path d="M311.02 101.47l-2 .05-.02-1.06h2z" stroke="#3a414a" stroke-width=".05" fill="#3a414a"/><path d="M616.3 449.9l-14.4 4.2.28-9.27z" stroke="#3a414a" stroke-width="2" fill="#3a414a"/><path d="M729.98 191.47l-.15 7.2-.22 3.45m-.93 10.62l-.03.28-.94 6.4-1.15 6-1.33 5.7-.7 2.52m-3.26 10.16l-1.2 3.25-2.17 5.13-2.44 5.17-2.78 5.3-.3.52m-5.5 9.13l-1.37 2.15-5.15 7.4-5.92 7.76m-6.52 8.44l-13.14 16.8m-6.36 8.55l-2.45 3.5-3.93 6.2-3.24 5.6-1.5 2.87m-4.56 9.64l-1.3 3.1-1.93 5.2-1.73 5.27-1.52 5.46-.28 1.2m-2.2 10.42v.1l-.95 6.4-.43 4.08" stroke="#3a414a" stroke-width="2" stroke-linejoin="round" fill="none"/><path d="M730.98 191.5l-2-.03.02-1h2z" stroke="#3a414a" stroke-width=".05" fill="#3a414a"/><path d="M641.62 407.66l-3.9-14.48 9.25.47z" stroke="#3a414a" stroke-width="2" fill="#3a414a"/><path d="M729.98 301.46l-.07 2.95-.23 3.62-.25 2.2m-1.6 8.6l-.35 1.4-.82 2.7-.92 2.62-1.04 2.57-1.2 2.57-1.32 2.6-1 1.73m-4.85 7.3l-2.52 3.27-4.8 5.65-3.97 4.5m-5.8 6.6l-3.04 3.45-2.87 3.7-2.18 3.1-1.8 2.83-.55.97m-3.9 7.85l-.63 1.58-.92 2.62-.82 2.7-.37 1.42" stroke="#3a414a" stroke-width="2" stroke-linejoin="round" fill="none"/><path d="M730.98 301.5l-2-.03.02-1h2z" stroke="#3a414a" stroke-width=".05" fill="#3a414a"/><path d="M680.38 407.66l-2.93-14.7 9.2 1.07z" stroke="#3a414a" stroke-width="2" fill="#3a414a"/><path d="M1149.96 280.13v.25l-.08.6-.1.62-.1.62-.15.62-.17.62-.2.63-.25.63-.26.66-.32.66-.36.7-.4.7-.48.73-.53.76-.23.3m-7.18 6.85l-1.18.86-2.1 1.4-2.56 1.55-3.16 1.74-3.95 1.96-4.54 2m-9.3 3.6l-6.95 2.42-12.03 3.6m-9.65 2.5l-10.85 2.78-8.55 1.8m-9.75 2.04l-16 3.36-3.54.6m-9.82 1.67l-19.64 3.35m-9.83 1.67l-19.65 3.33m-9.83 1.67l-19.65 3.35m-9.82 1.67l-19.66 3.34m-9.82 1.68l-19.65 3.34m-9.83 1.67l-19.65 3.34m-9.83 1.67l-19.65 3.34m-9.83 1.68l-19.66 3.34m-9.75 1.97l-16.1 4.1-3.18.95m-9.54 2.86l-.17.06-9.05 3.14-6.65 2.63-2.76 1.23m-8.93 4.44l-.5.27-2.55 1.55-2.1 1.4-1.76 1.27-1.35 1.05" stroke="#3a414a" stroke-width="2" stroke-linejoin="round" fill="none"/><path d="M1150.98 280.18l-2-.04.02-1h2z" stroke="#3a414a" stroke-width=".05" fill="#3a414a"/><path d="M717.5 408.04l3.1-14.67 8.03 4.63z" stroke="#3a414a" stroke-width="2" fill="#3a414a"/><path d="M40 186a6 6 0 0 1 6-6h108a6 6 0 0 1 6 6v48a6 6 0 0 1-6 6H46a6 6 0 0 1-6-6z" stroke="#3a414a" fill="#c3f7c8"/><use xlink:href="#a" transform="matrix(1,0,0,1,52,192) translate(21.487654320987655 22.27777777777778)"/><path d="M460 256a6 6 0 0 1 6-6h108a6 6 0 0 1 6 6v48a6 6 0 0 1-6 6H466a6 6 0 0 1-6-6z" stroke="#3a414a" fill="#c3f7c8"/><use xlink:href="#a" transform="matrix(1,0,0,1,472,262) translate(21.487654320987655 22.27777777777778)"/><path d="M460 146a6 6 0 0 1 6-6h108a6 6 0 0 1 6 6v48a6 6 0 0 1-6 6H466a6 6 0 0 1-6-6z" stroke="#3a414a" fill="#c3f7c8"/><use xlink:href="#a" transform="matrix(1,0,0,1,472,152) translate(21.487654320987655 22.27777777777778)"/><path d="M880 234.67a6 6 0 0 1 6-6h108a6 6 0 0 1 6 6v48a6 6 0 0 1-6 6H886a6 6 0 0 1-6-6z" stroke="#3a414a" fill="#c3f7c8"/><use xlink:href="#a" transform="matrix(1,0,0,1,892,240.66802950477955) translate(21.487654320987655 22.27777777777778)"/><path d="M240 266a6 6 0 0 1 6-6h128a6 6 0 0 1 6 6v28a6 6 0 0 1-6 6H246a6 6 0 0 1-6-6z" stroke="#3a414a" fill="#cfe4ff"/><use xlink:href="#b" transform="matrix(1,0,0,1,252,272) translate(34.574074074074076 17.77777777777778)"/><path d="M240 66a6 6 0 0 1 6-6h128a6 6 0 0 1 6 6v28a6 6 0 0 1-6 6H246a6 6 0 0 1-6-6z" stroke="#3a414a" fill="#cfe4ff"/><use xlink:href="#b" transform="matrix(1,0,0,1,252,72) translate(34.574074074074076 17.77777777777778)"/><path d="M660 266a6 6 0 0 1 6-6h128a6 6 0 0 1 6 6v28a6 6 0 0 1-6 6H666a6 6 0 0 1-6-6z" stroke="#3a414a" fill="#cfe4ff"/><use xlink:href="#b" transform="matrix(1,0,0,1,672,272) translate(34.574074074074076 17.77777777777778)"/><path d="M620 417.33a6 6 0 0 1 6-6h108a6 6 0 0 1 6 6v65.34a6 6 0 0 1-6 6H626a6 6 0 0 1-6-6z" stroke="#3a414a" fill="#b8f5ed"/><use xlink:href="#c" transform="matrix(1,0,0,1,632,423.3333333333333) translate(9.75925925925926 21.15277777777778)"/><use xlink:href="#d" transform="matrix(1,0,0,1,632,423.3333333333333) translate(2.4135802469135754 47.81944444444444)"/><path d="M920 486c0 4.97-26.86 9-60 9s-60-4.03-60-9v-72c0-4.97 26.86-9 60-9s60 4.03 60 9z" stroke="#3a414a" fill="#f4d9ff"/><path d="M920 414c0 4.97-26.86 9-60 9s-60-4.03-60-9" stroke="#3a414a" fill="none"/><use xlink:href="#e" transform="matrix(1,0,0,1,805,428) translate(16.172839506172842 37.15277777777778)"/><use xlink:href="#f" transform="matrix(1,0,0,1,805,428) translate(65.55555555555556 37.15277777777778)"/><path d="M160.94 194.65h.38l.86-.06.84-.1.82-.13.82-.16.8-.2.8-.22.8-.28.82-.3.8-.37.83-.4.85-.46.85-.52.88-.58.9-.67.94-.75.97-.85 1.02-.98 1.08-1.13 1.15-1.32 1.23-1.54 1.34-1.82 1.46-2.2 1.64-2.7 1.87-3.4 2.2-4.5 2.8-6.37 4.28-11.06 14.3-39.6 2.8-6.36 2.2-4.5 1.87-3.4 1.64-2.7 1.46-2.2 1.34-1.82 1.23-1.53 1.15-1.32 1.08-1.13.8-.76" stroke="#3a414a" stroke-linejoin="round" fill="none"/><path d="M160.97 195.15h-.53v-1h.5z" stroke="#3a414a" stroke-width=".05" fill="#3a414a"/><path d="M238.05 80.64l-11.3 9.88-3.64-8.53z" stroke="#3a414a" fill="#3a414a"/><path d="M158.68 239.18l8.63 9.52 6.72 6.54 5.64 4.85 5.04 3.8 4.72 3.15 4.55 2.63 4.5 2.25 4.56 1.94 4.74 1.67 5 1.43 5.45 1.2 4.98.77" stroke="#3a414a" stroke-linejoin="round" fill="none"/><path d="M159.06 238.86l-.74.67-.35-.4.63-.53.1-.13z" stroke="#3a414a" stroke-width=".05" fill="#3a414a"/><path d="M237.92 279.9l-14.54 3.7.6-9.26z" stroke="#3a414a" fill="#3a414a"/><path d="M380.46 263.35l2.37-1.06 2.7-1.44 2.58-1.58 2.55-1.78 2.5-2 2.53-2.3 2.57-2.65 2.68-3.14 2.9-3.87 3.37-5.13 4.8-8.46L424.7 206l2.83-4.34 2.36-3.14 2.1-2.46 1.95-2.02 1.87-1.7 1.82-1.46 1.8-1.26 1.8-1.1 1.83-.97.57-.26" stroke="#3a414a" stroke-linejoin="round" fill="none"/><path d="M380.68 263.8l-.5.22V264l-.37-.9.47-.2z" stroke="#3a414a" stroke-width=".05" fill="#3a414a"/><path d="M457.97 184.33l-13.03 7.43-1.88-9.08z" stroke="#3a414a" fill="#3a414a"/><path d="M380.97 280h62.18" stroke="#3a414a" stroke-linejoin="round" fill="none"/><path d="M380.98 280.5h-.5l-.02-1h.52z" stroke="#3a414a" stroke-width=".05" fill="#3a414a"/><path d="M457.92 280l-14.27 4.64v-9.28z" stroke="#3a414a" fill="#3a414a"/><path d="M580.96 280h62.2" stroke="#3a414a" stroke-linejoin="round" fill="none"/><path d="M580.98 280.5h-.52v-1h.52z" stroke="#3a414a" stroke-width=".05" fill="#3a414a"/><path d="M657.92 280l-14.27 4.64v-9.28z" stroke="#3a414a" fill="#3a414a"/><path d="M800.97 280h62.2" stroke="#3a414a" stroke-linejoin="round" fill="none"/><path d="M800.98 280.5h-.5l-.02-1h.52z" stroke="#3a414a" stroke-width=".05" fill="#3a414a"/><path d="M877.95 280l-14.27 4.64v-9.28z" stroke="#3a414a" fill="#3a414a"/><path d="M380.93 94.94l2.06.22 2.38.43 2.26.54 2.18.67 2.1.8 2.08.96 2.06 1.1 2.08 1.3 2.14 1.5 2.24 1.82 2.4 2.22 2.72 2.84 3.3 3.93 5.4 7.38 11.7 16.6 3.2 3.8 2.57 2.7 2.3 2.1 2.1 1.7 2 1.43 1.93 1.2 1.57.84" stroke="#3a414a" stroke-linejoin="round" fill="none"/><path d="M381 94.44l-.1 1-.56-.07.08-.35.05-.64z" stroke="#3a414a" stroke-width=".05" fill="#3a414a"/><path d="M457.94 154.3L443 155.6l2.08-9.02z" stroke="#3a414a" fill="#3a414a"/><path d="M660 156a6 6 0 0 1 6-6h128a6 6 0 0 1 6 6v28a6 6 0 0 1-6 6H666a6 6 0 0 1-6-6z" stroke="#3a414a" fill="#cfe4ff"/><use xlink:href="#b" transform="matrix(1,0,0,1,672,162) translate(34.574074074074076 17.77777777777778)"/><path d="M580.96 170h62.2" stroke="#3a414a" stroke-linejoin="round" fill="none"/><path d="M580.98 170.5h-.52v-1h.52z" stroke="#3a414a" stroke-width=".05" fill="#3a414a"/><path d="M657.92 170l-14.27 4.64v-9.28z" stroke="#3a414a" fill="#3a414a"/><path d="M800.97 170l.95.04 1.4.12 1.35.2 1.3.25 1.3.35 1.27.4 1.27.5 1.28.56 1.28.68 1.3.78 1.35.9 1.4 1.06 1.47 1.24 1.55 1.48 1.66 1.78 1.83 2.18 2.05 2.76 2.38 3.6 2.96 5.1 4.43 8.8 14.98 31.94 2.97 5.1 2.38 3.6 2.05 2.76 1.82 2.2 1.67 1.77 1.53 1.47 1.47 1.25.74.56" stroke="#3a414a" stroke-linejoin="round" fill="none"/><path d="M801 169.5l-.04 1h-.5v-1z" stroke="#3a414a" stroke-width=".05" fill="#3a414a"/><path d="M878 258.14l-15-.28 3.04-8.77z" stroke="#3a414a" fill="#3a414a"/><path d="M1080 244.67a6 6 0 0 1 6-6h128a6 6 0 0 1 6 6v28a6 6 0 0 1-6 6h-128a6 6 0 0 1-6-6z" stroke="#3a414a" fill="#cfe4ff"/><use xlink:href="#b" transform="matrix(1,0,0,1,1092,250.66802950477955) translate(34.574074074074076 17.77777777777778)"/><path d="M1000.96 258.67h62.2" stroke="#3a414a" stroke-linejoin="round" fill="none"/><path d="M1000.98 259.17h-.52v-1h.52z" stroke="#3a414a" stroke-width=".05" fill="#3a414a"/><path d="M1077.92 258.67l-14.27 4.63v-9.27z" stroke="#3a414a" fill="#3a414a"/><path d="M380.97 80l52.7-1.22L690.75 65.4l35.85.7 26.72 1.67 21.18 2.2 17.4 2.57 14.68 2.8 12.6 2.94 10.96 3.06 9.67 3.13 8.6 3.2 7.74 3.24 6.98 3.3 6.36 3.32 5.82 3.36 5.36 3.4 4.96 3.44 4.6 3.5 4.3 3.54 4 3.6 3.76 3.7 3.54 3.76 3.33 3.86 3.15 3.97 2.97 4.1 2.8 4.22 2.66 4.38 2.5 4.56 2.37 4.78 2.23 5 2.07 5.24 1.93 5.55 1.78 5.88 1.62 6.27 1.42 6.7 1.22 7.24 1 7.8.53 6.48" stroke="#3a414a" stroke-linejoin="round" fill="none"/><path d="M381 80.5h-.53v-1h.5z" stroke="#3a414a" stroke-width=".05" fill="#3a414a"/><path d="M939.94 226.6l-5.16-14.1 9.26-.34z" stroke="#3a414a" fill="#3a414a"/><path d="M741.46 450H781" stroke="#3a414a" stroke-width="2" stroke-linejoin="round" fill="none"/><path d="M741.5 451h-1.04v-2h1.03z" stroke="#3a414a" stroke-width=".05" fill="#3a414a"/><path d="M796.27 450L782 454.64v-9.28z" stroke="#3a414a" stroke-width="2" fill="#3a414a"/><defs><path fill="#3a414a" d="M190 0L58-211 59 0H30v-248h39L202-35l-2-213h31V0h-41" id="g"/><path fill="#3a414a" d="M100-194c62-1 85 37 85 99 1 63-27 99-86 99S16-35 15-95c0-66 28-99 85-99zM99-20c44 1 53-31 53-75 0-43-8-75-51-75s-53 32-53 75 10 74 51 75" id="h"/><path fill="#3a414a" d="M85-194c31 0 48 13 60 33l-1-100h32l1 261h-30c-2-10 0-23-3-31C134-8 116 4 85 4 32 4 16-35 15-94c0-66 23-100 70-100zm9 24c-40 0-46 34-46 75 0 40 6 74 45 74 42 0 51-32 51-76 0-42-9-74-50-73" id="i"/><path fill="#3a414a" d="M100-194c63 0 86 42 84 106H49c0 40 14 67 53 68 26 1 43-12 49-29l28 8c-11 28-37 45-77 45C44 4 14-33 15-96c1-61 26-98 85-98zm52 81c6-60-76-77-97-28-3 7-6 17-6 28h103" id="j"/><g id="a"><use transform="matrix(0.06172839506172839,0,0,0.06172839506172839,0,0)" xlink:href="#g"/><use transform="matrix(0.06172839506172839,0,0,0.06172839506172839,15.987654320987653,0)" xlink:href="#h"/><use transform="matrix(0.06172839506172839,0,0,0.06172839506172839,28.333333333333332,0)" xlink:href="#i"/><use transform="matrix(0.06172839506172839,0,0,0.06172839506172839,40.67901234567901,0)" xlink:href="#j"/></g><path fill="#3a414a" d="M59-47c-2 24 18 29 38 22v24C64 9 27 4 27-40v-127H5v-23h24l9-43h21v43h35v23H59v120" id="k"/><path fill="#3a414a" d="M115-194c55 1 70 41 70 98S169 2 115 4C84 4 66-9 55-30l1 105H24l-1-265h31l2 30c10-21 28-34 59-34zm-8 174c40 0 45-34 45-75s-6-73-45-74c-42 0-51 32-51 76 0 43 10 73 51 73" id="l"/><path fill="#3a414a" d="M24-231v-30h32v30H24zM24 0v-190h32V0H24" id="m"/><path fill="#3a414a" d="M96-169c-40 0-48 33-48 73s9 75 48 75c24 0 41-14 43-38l32 2c-6 37-31 61-74 61-59 0-76-41-82-99-10-93 101-131 147-64 4 7 5 14 7 22l-32 3c-4-21-16-35-41-35" id="n"/><g id="b"><use transform="matrix(0.06172839506172839,0,0,0.06172839506172839,0,0)" xlink:href="#k"/><use transform="matrix(0.06172839506172839,0,0,0.06172839506172839,6.172839506172839,0)" xlink:href="#h"/><use transform="matrix(0.06172839506172839,0,0,0.06172839506172839,18.51851851851852,0)" xlink:href="#l"/><use transform="matrix(0.06172839506172839,0,0,0.06172839506172839,30.864197530864196,0)" xlink:href="#m"/><use transform="matrix(0.06172839506172839,0,0,0.06172839506172839,35.74074074074074,0)" xlink:href="#n"/></g><path fill="#3a414a" d="M233-177c-1 41-23 64-60 70L243 0h-38l-65-103H63V0H30v-248c88 3 205-21 203 71zM63-129c60-2 137 13 137-47 0-61-80-42-137-45v92" id="o"/><path fill="#3a414a" d="M135-143c-3-34-86-38-87 0 15 53 115 12 119 90S17 21 10-45l28-5c4 36 97 45 98 0-10-56-113-15-118-90-4-57 82-63 122-42 12 7 21 19 24 35" id="p"/><path fill="#3a414a" d="M115-194c53 0 69 39 70 98 0 66-23 100-70 100C84 3 66-7 56-30L54 0H23l1-261h32v101c10-23 28-34 59-34zm-8 174c40 0 45-34 45-75 0-40-5-75-45-74-42 0-51 32-51 76 0 43 10 73 51 73" id="q"/><path fill="#3a414a" d="M141-36C126-15 110 5 73 4 37 3 15-17 15-53c-1-64 63-63 125-63 3-35-9-54-41-54-24 1-41 7-42 31l-33-3c5-37 33-52 76-52 45 0 72 20 72 64v82c-1 20 7 32 28 27v20c-31 9-61-2-59-35zM48-53c0 20 12 33 32 33 41-3 63-29 60-74-43 2-92-5-92 41" id="r"/><path fill="#3a414a" d="M177-190C167-65 218 103 67 71c-23-6-38-20-44-43l32-5c15 47 100 32 89-28v-30C133-14 115 1 83 1 29 1 15-40 15-95c0-56 16-97 71-98 29-1 48 16 59 35 1-10 0-23 2-32h30zM94-22c36 0 50-32 50-73 0-42-14-75-50-75-39 0-46 34-46 75s6 73 46 73" id="s"/><g id="c"><use transform="matrix(0.06172839506172839,0,0,0.06172839506172839,0,0)" xlink:href="#o"/><use transform="matrix(0.06172839506172839,0,0,0.06172839506172839,15.987654320987653,0)" xlink:href="#h"/><use transform="matrix(0.06172839506172839,0,0,0.06172839506172839,28.333333333333332,0)" xlink:href="#p"/><use transform="matrix(0.06172839506172839,0,0,0.06172839506172839,39.44444444444444,0)" xlink:href="#q"/><use transform="matrix(0.06172839506172839,0,0,0.06172839506172839,51.79012345679012,0)" xlink:href="#r"/><use transform="matrix(0.06172839506172839,0,0,0.06172839506172839,64.1358024691358,0)" xlink:href="#s"/></g><path fill="#3a414a" d="M114-163C36-179 61-72 57 0H25l-1-190h30c1 12-1 29 2 39 6-27 23-49 58-41v29" id="t"/><g id="d"><use transform="matrix(0.06172839506172839,0,0,0.06172839506172839,0,0)" xlink:href="#o"/><use transform="matrix(0.06172839506172839,0,0,0.06172839506172839,15.987654320987653,0)" xlink:href="#j"/><use transform="matrix(0.06172839506172839,0,0,0.06172839506172839,28.333333333333332,0)" xlink:href="#n"/><use transform="matrix(0.06172839506172839,0,0,0.06172839506172839,39.44444444444444,0)" xlink:href="#h"/><use transform="matrix(0.06172839506172839,0,0,0.06172839506172839,51.79012345679012,0)" xlink:href="#t"/><use transform="matrix(0.06172839506172839,0,0,0.06172839506172839,59.1358024691358,0)" xlink:href="#i"/><use transform="matrix(0.06172839506172839,0,0,0.06172839506172839,71.48148148148148,0)" xlink:href="#j"/><use transform="matrix(0.06172839506172839,0,0,0.06172839506172839,83.82716049382717,0)" xlink:href="#t"/></g><path fill="#3a414a" d="M33 0v-38h34V0H33" id="u"/><g id="e"><use transform="matrix(0.06172839506172839,0,0,0.06172839506172839,0,0)" xlink:href="#u"/><use transform="matrix(0.06172839506172839,0,0,0.06172839506172839,6.172839506172839,0)" xlink:href="#q"/><use transform="matrix(0.06172839506172839,0,0,0.06172839506172839,18.51851851851852,0)" xlink:href="#r"/><use transform="matrix(0.06172839506172839,0,0,0.06172839506172839,30.864197530864196,0)" xlink:href="#s"/></g><path fill="#3a414a" d="M101-234c-31-9-42 10-38 44h38v23H63V0H32v-167H5v-23h27c-7-52 17-82 69-68v24" id="v"/><path fill="#3a414a" d="M24 0v-261h32V0H24" id="w"/><g id="f"><use transform="matrix(0.06172839506172839,0,0,0.06172839506172839,0,0)" xlink:href="#v"/><use transform="matrix(0.06172839506172839,0,0,0.06172839506172839,6.172839506172839,0)" xlink:href="#m"/><use transform="matrix(0.06172839506172839,0,0,0.06172839506172839,11.049382716049383,0)" xlink:href="#w"/><use transform="matrix(0.06172839506172839,0,0,0.06172839506172839,15.925925925925926,0)" xlink:href="#j"/></g></defs></g></svg>